<?xml version="1.0" encoding="utf-8"?>
<!-- Generator: Adobe Illustrator 27.5.0, SVG Export Plug-In . SVG Version: 6.00 Build 0)  -->
<svg version="1.1" xmlns="http://www.w3.org/2000/svg" xmlns:xlink="http://www.w3.org/1999/xlink" x="0px" y="0px"
	 viewBox="0 0 750 500" style="enable-background:new 0 0 750 500;" xml:space="preserve">
<g id="BACKGROUND">
	<rect style="fill:#19B2CC;" width="750" height="500"/>
</g>
<g id="OBJECTS">
	<g>
		<g>
			<path style="fill:#C2F9FF;" d="M690.795,306.469c0-95.711-102.179-96.149-124.039-145.559
				c-14.571-32.933-29.718-112.758-117.78-112.758s-95.151,109.319-227.252,86.779C89.623,112.391,68.125,238.872,61.555,306.469
				H690.795z"/>
			<path style="fill:#C2F9FF;" d="M81.943,157.991c-2.328,19.418,20.63,23.01,33.99,13.293c0.803,1.046,1.703,2.093,2.733,3.137
				c13.55,13.736,30.372,11.429,39.814,1.819c4.711,5.346,12.495,8.274,21.253,4.337c4.344-1.953,7.315-4.918,9.049-8.264
				c5.131,1.148,11.135,0.713,17.64-2.004c16.308-6.811,14.556-24.425,3.579-33.45c3.228-2.574,5.811-5.974,7.199-10.164
				c4.964-14.988-22.835-31.81-36.099-16.713c-5.55-7.531-16.795-11.298-32.261-3.997c-2.584,1.22-4.64,2.76-6.222,4.517
				c-7.469-7.674-21.397-11.536-30.238-3.352c-15.587-4.684-35.569,6.284-35.325,23.628c-8.154,0.449-16.201,6.69-15.528,15.497
				C62.237,155.567,73.155,159.553,81.943,157.991z"/>
			<path style="fill:#C2F9FF;" d="M657.347,198.942c1.817-10.404-10.46-13.005-17.944-8.151c-0.403-0.587-0.858-1.178-1.383-1.771
				c-6.91-7.799-16.047-7.041-21.417-2.132c-2.386-3.019-6.499-4.823-11.335-2.953c-2.399,0.928-4.087,2.441-5.119,4.195
				c-2.734-0.767-5.984-0.706-9.57,0.571c-8.991,3.201-8.555,12.75-2.897,17.934c-1.815,1.295-3.306,3.053-4.176,5.273
				c-3.11,7.938,11.394,17.813,18.983,10.056c2.775,4.221,8.73,6.578,17.281,3.088c1.429-0.583,2.582-1.354,3.486-2.256
				c3.806,4.354,11.205,6.839,16.208,2.682c8.27,2.976,19.362-2.361,19.732-11.72c4.41-0.007,8.93-3.139,8.821-7.908
				C667.903,200.819,662.131,198.354,657.347,198.942z"/>
			<path style="fill:#C2F9FF;" d="M565.585,76.852c2.18-12.487-12.554-15.608-21.537-9.783c-0.483-0.705-1.03-1.414-1.66-2.125
				c-8.293-9.36-19.26-8.451-25.705-2.558c-2.863-3.623-7.8-5.788-13.604-3.544c-2.879,1.113-4.905,2.929-6.143,5.035
				c-3.281-0.921-7.182-0.848-11.486,0.685c-10.791,3.842-10.268,15.303-3.477,21.525c-2.179,1.554-3.968,3.665-5.012,6.329
				c-3.733,9.528,13.675,21.38,22.784,12.069c3.331,5.067,10.478,7.895,20.741,3.706c1.715-0.7,3.099-1.625,4.184-2.707
				c4.568,5.226,13.448,8.209,19.454,3.218c9.925,3.572,23.238-2.833,23.682-14.066c5.293-0.008,10.717-3.768,10.587-9.491
				C578.255,79.105,571.328,76.146,565.585,76.852z"/>
			<path style="fill:#C2F9FF;" d="M313.298,65.482c1.242-7.116-7.154-8.894-12.273-5.575c-0.276-0.402-0.587-0.805-0.946-1.211
				c-4.726-5.334-10.975-4.816-14.648-1.458c-1.632-2.065-4.445-3.299-7.752-2.02c-1.641,0.634-2.795,1.669-3.501,2.869
				c-1.87-0.525-4.092-0.483-6.545,0.39c-6.149,2.19-5.851,8.72-1.981,12.266c-1.242,0.886-2.261,2.088-2.856,3.606
				c-2.127,5.429,7.793,12.183,12.983,6.878c1.898,2.887,5.971,4.499,11.819,2.112c0.977-0.399,1.766-0.926,2.384-1.543
				c2.603,2.978,7.663,4.678,11.086,1.834c5.656,2.035,13.242-1.615,13.495-8.016c3.016-0.004,6.107-2.147,6.033-5.408
				C320.518,66.766,316.57,65.08,313.298,65.482z"/>
		</g>
		<g>
			<path style="fill:#658927;" d="M185.519,252.771l-24.399,53.755h3.063h223.424h3.505l-30.326-58.393
				C323.304,175.96,219.132,178.716,185.519,252.771z"/>
			<path style="fill:#658927;" d="M496.284,259.265l-21.451,47.261h2.693H673.96h3.082l-26.662-51.339
				C617.424,191.732,525.836,194.156,496.284,259.265z"/>
			<path style="fill:#4F6D15;" d="M85.708,272.708l-15.35,33.818h1.927h140.559h2.205l-19.078-36.736
				C172.391,224.385,106.855,226.119,85.708,272.708z"/>
			<path style="fill:#4F6D15;" d="M371.069,262.601l-19.937,43.925h2.503H536.2h2.864l-24.78-47.715
				C483.656,199.837,398.534,202.089,371.069,262.601z"/>
		</g>
		<g>
			<g>
				<rect x="579.886" y="117.861" style="fill:#47CFE0;" width="5.742" height="188.608"/>
				<rect x="571.988" y="138.522" style="fill:#206E89;" width="7.898" height="167.947"/>
				<rect x="585.628" y="117.861" style="fill:#206E89;" width="2.988" height="188.608"/>
				<path style="fill:#206E89;" d="M627.652,306.469h3.952c0.09-4.851,0.628-43.385-3.949-83.365
					c-6.446-56.306-19.598-89.194-39.095-97.833v4.245C629.788,151.546,627.816,297.512,627.652,306.469z"/>
				<path style="fill:#B9F7F9;" d="M627.652,306.469h-39.036V129.516c0,0,19.071,0.98,31.776,70.467
					C633.097,269.471,627.652,306.469,627.652,306.469z"/>
				<g>
					<path style="fill:#95DBDB;" d="M617.767,186.959c-0.955-4.307-1.933-8.295-2.926-11.98h-26.225v11.98H617.767z"/>
					<path style="fill:#95DBDB;" d="M588.616,163.597h22.819c-1.528-4.583-3.064-8.547-4.58-11.98h-18.24V163.597z"/>
					<path style="fill:#95DBDB;" d="M622.19,210.32c-0.555-3.363-1.152-6.806-1.797-10.337c-0.102-0.556-0.205-1.096-0.307-1.643
						h-31.469v11.98H622.19z"/>
					<path style="fill:#95DBDB;" d="M627.962,303.767c0.236-2.407,0.549-6.419,0.722-11.98h-40.068v11.98H627.962z"/>
					<path style="fill:#95DBDB;" d="M628.798,280.405c-0.033-3.626-0.131-7.618-0.32-11.98h-39.862v11.98H628.798z"/>
					<path style="fill:#95DBDB;" d="M627.82,257.044c-0.271-3.783-0.607-7.778-1.02-11.98h-38.184v11.98H627.82z"/>
					<path style="fill:#95DBDB;" d="M625.548,233.682c-0.468-3.848-0.996-7.839-1.594-11.98h-35.337v11.98H625.548z"/>
				</g>
				<rect x="588.616" y="148.187" style="fill:#206E89;" width="34.192" height="3.43"/>
			</g>
			<g>
				<g>
					<polygon style="fill:#FCC19F;" points="675.336,306.469 615.002,237.548 551.45,306.469 					"/>
					<polygon style="fill:#D18B69;" points="615.002,237.548 625.192,306.469 675.336,306.469 					"/>
				</g>
				<g>
					<polygon style="fill:#FCC19F;" points="501.574,306.469 441.24,237.548 377.688,306.469 					"/>
					<polygon style="fill:#D18B69;" points="441.24,237.548 451.43,306.469 501.574,306.469 					"/>
				</g>
				<g>
					<polygon style="fill:#FCC19F;" points="615.966,306.469 528.01,205.996 435.363,306.469 					"/>
					<polygon style="fill:#D18B69;" points="528.01,205.996 542.865,306.469 615.966,306.469 					"/>
				</g>
			</g>
			<g>
				<rect x="469.169" y="198.683" style="fill:#E0AE7E;" width="31.775" height="107.786"/>
				<rect x="465.275" y="150.708" style="fill:#EFBD95;" width="39.563" height="47.974"/>
				<g>
					<rect x="473.959" y="202.966" style="fill:#FFD3B6;" width="3.271" height="24.766"/>
					<rect x="480.267" y="202.966" style="fill:#FFD3B6;" width="3.271" height="24.766"/>
					<rect x="486.576" y="202.966" style="fill:#FFD3B6;" width="3.271" height="24.766"/>
					<rect x="492.884" y="202.966" style="fill:#FFD3B6;" width="3.271" height="24.766"/>
				</g>
				<rect x="466.56" y="231.47" style="fill:#68503D;" width="36.993" height="3.738"/>
				<rect x="466.56" y="146.97" style="fill:#68503D;" width="36.993" height="3.738"/>
				<rect x="466.56" y="134.301" style="fill:#68503D;" width="36.993" height="1.259"/>
				<rect x="466.56" y="135.561" style="fill:#EFBD95;" width="36.993" height="11.41"/>
				<g>
					<rect x="473.959" y="240.601" style="fill:#FFD3B6;" width="3.271" height="24.766"/>
					<rect x="480.267" y="240.601" style="fill:#FFD3B6;" width="3.271" height="24.766"/>
					<rect x="486.576" y="240.601" style="fill:#FFD3B6;" width="3.271" height="24.766"/>
					<rect x="492.884" y="240.601" style="fill:#FFD3B6;" width="3.271" height="24.766"/>
				</g>
				<rect x="466.56" y="269.105" style="fill:#68503D;" width="36.993" height="3.738"/>
				<g>
					<rect x="473.959" y="277.983" style="fill:#FFD3B6;" width="3.271" height="24.766"/>
					<rect x="480.267" y="277.983" style="fill:#FFD3B6;" width="3.271" height="24.766"/>
					<rect x="486.576" y="277.983" style="fill:#FFD3B6;" width="3.271" height="24.766"/>
					<rect x="492.884" y="277.983" style="fill:#FFD3B6;" width="3.271" height="24.766"/>
				</g>
				<g>
					<circle style="fill:#FCF1E3;" cx="485.057" cy="174.695" r="13.785"/>
					<polyline style="fill:none;stroke:#332D26;stroke-linecap:round;stroke-miterlimit:10;" points="478.817,165.817 
						484.988,174.695 495.464,174.695 					"/>
				</g>
				<g>
					<rect x="473.9" y="138.092" style="fill:#68503D;" width="2.192" height="8.878"/>
					<rect x="478.931" y="138.092" style="fill:#68503D;" width="2.192" height="8.878"/>
					<rect x="483.961" y="138.092" style="fill:#68503D;" width="2.192" height="8.878"/>
					<rect x="488.991" y="138.092" style="fill:#68503D;" width="2.192" height="8.878"/>
					<rect x="494.021" y="138.092" style="fill:#68503D;" width="2.192" height="8.878"/>
				</g>
				<path style="fill:#443123;" d="M491.164,100.397h-6.107h-6.107c0,0,0.032,26.168-12.39,33.904h18.497h18.497
					C491.132,126.565,491.164,100.397,491.164,100.397z"/>
				<rect x="478.963" y="91.475" style="fill:#EFBD95;" width="12.188" height="8.923"/>
				<rect x="480.027" y="96.114" style="fill:#68503D;" width="10.06" height="2.648"/>
				<polygon style="fill:#68503D;" points="485.119,66.52 479.742,91.475 490.371,91.475 				"/>
				<rect x="477.994" y="90.405" style="fill:#443123;" width="14.126" height="1.07"/>
			</g>
			<g>
				<rect x="256.378" y="174.571" style="fill:#DDBDAF;" width="125.028" height="38.89"/>
				<path style="fill:#DDBDAF;" d="M256.378,216.435v84.125h45.008v-56.747c0-9.668,7.838-17.505,17.505-17.505
					c9.668,0,17.505,7.837,17.505,17.505v56.747h45.008v-84.125H256.378z"/>
				<rect x="251.07" y="188.111" style="fill:#EACBBB;" width="135.644" height="5.905"/>
				<rect x="253.955" y="176.203" style="fill:#EACBBB;" width="129.874" height="2.953"/>
				<rect x="253.955" y="170.298" style="fill:#EACBBB;" width="129.874" height="2.953"/>
				<rect x="254.243" y="213.46" style="fill:#EACBBB;" width="129.297" height="2.953"/>
				<g>
					<polygon style="fill:#DDBDAF;" points="253.955,196.833 256.378,202.134 256.378,196.833 					"/>
					<polygon style="fill:#DDBDAF;" points="383.828,196.833 381.405,202.134 381.405,196.833 					"/>
				</g>
				<rect x="255.523" y="173.251" style="fill:#CCAA9B;" width="126.736" height="2.952"/>
				<g>
					<rect x="333.868" y="304.499" style="fill:#EACBBB;" width="50.039" height="1.97"/>
					<polygon style="fill:#EACBBB;" points="383.303,302.53 334.473,302.53 336.397,300.56 381.405,300.56 					"/>
					<rect x="334.473" y="302.53" style="fill:#CCAA9B;" width="48.83" height="1.97"/>
				</g>
				<g>
					<rect x="253.852" y="304.499" style="fill:#EACBBB;" width="50.039" height="1.97"/>
					<polygon style="fill:#EACBBB;" points="303.287,302.53 254.456,302.53 256.381,300.56 301.389,300.56 					"/>
					<rect x="254.456" y="302.53" style="fill:#CCAA9B;" width="48.83" height="1.97"/>
				</g>
				<rect x="252.916" y="194.016" style="fill:#CCAA9B;" width="131.952" height="2.817"/>
				<rect x="256.378" y="202.134" style="fill:#CCAA9B;" width="125.028" height="11.326"/>
				<g>
					<rect x="336.397" y="243.813" style="fill:#EACBBB;" width="45.008" height="2.376"/>
					<rect x="336.397" y="282.469" style="fill:#EACBBB;" width="45.008" height="2.375"/>
					<ellipse style="fill:#CCAA9B;" cx="358.901" cy="264.454" rx="10.271" ry="13.97"/>
				</g>
				<g>
					<rect x="256.381" y="243.813" style="fill:#EACBBB;" width="45.008" height="2.376"/>
					<rect x="256.381" y="282.469" style="fill:#EACBBB;" width="45.008" height="2.375"/>
					<ellipse style="fill:#CCAA9B;" cx="278.885" cy="264.454" rx="10.271" ry="13.97"/>
				</g>
			</g>
			<g>
				<rect x="155.243" y="245.128" style="fill:#870606;" width="3.707" height="57.924"/>
				<rect x="146.207" y="245.128" style="fill:#870606;" width="3.707" height="57.924"/>
				<rect x="128.134" y="245.128" style="fill:#870606;" width="3.707" height="57.924"/>
				<rect x="126.628" y="245.128" style="fill:#302B2B;" width="6.719" height="7.878"/>
				<rect x="144.701" y="245.128" style="fill:#302B2B;" width="6.719" height="7.878"/>
				<rect x="149.914" y="259.493" style="fill:#302B2B;" width="10.021" height="4.518"/>
				<polygon style="fill:#CC0202;" points="119.793,238.872 68.125,238.872 80.637,245.128 119.793,245.128 158.95,245.128 
					171.461,238.872 				"/>
				<polygon style="fill:#CC0202;" points="119.793,220.337 73.918,220.337 81.954,231.284 119.793,231.284 157.633,231.284 
					165.669,220.337 				"/>
				<polygon style="fill:#ED2424;" points="157.849,234.586 119.793,234.586 81.738,234.586 68.125,238.872 119.793,238.872 
					171.461,238.872 				"/>
				<polygon style="fill:#302B2B;" points="119.793,231.284 81.738,231.284 81.738,234.586 119.793,234.586 157.849,234.586 
					157.849,231.284 				"/>
				<polygon style="fill:#302B2B;" points="119.793,217.035 73.918,217.035 73.918,220.337 119.793,220.337 165.669,220.337 
					165.669,217.035 				"/>
				<polygon style="fill:#302B2B;" points="119.793,303.168 73.918,303.168 73.918,306.469 119.793,306.469 165.669,306.469 
					165.669,303.168 				"/>
				<polygon style="fill:#302B2B;" points="145.627,205.392 119.793,205.392 93.959,205.392 91.527,212.575 119.793,212.575 
					148.06,212.575 				"/>
				<path style="fill:#ED2424;" d="M119.793,212.575c-35.102,0-49.351-7.762-49.351-7.762l6.256,12.222h43.095h43.095l6.256-12.222
					C169.144,204.813,154.895,212.575,119.793,212.575z"/>
				
					<rect x="80.637" y="245.128" transform="matrix(-1 -1.224647e-16 1.224647e-16 -1 164.9811 548.1797)" style="fill:#870606;" width="3.707" height="57.924"/>
				
					<rect x="89.673" y="245.128" transform="matrix(-1 -1.224647e-16 1.224647e-16 -1 183.0533 548.1797)" style="fill:#870606;" width="3.707" height="57.924"/>
				
					<rect x="107.745" y="245.128" transform="matrix(-1 -1.224647e-16 1.224647e-16 -1 219.1977 548.1797)" style="fill:#870606;" width="3.707" height="57.924"/>
				
					<rect x="106.239" y="245.128" transform="matrix(-1 -1.224647e-16 1.224647e-16 -1 219.1977 498.1337)" style="fill:#302B2B;" width="6.719" height="7.878"/>
				
					<rect x="88.167" y="245.128" transform="matrix(-1 -1.224647e-16 1.224647e-16 -1 183.0533 498.1337)" style="fill:#302B2B;" width="6.719" height="7.878"/>
				
					<rect x="79.652" y="259.493" transform="matrix(-1 -1.224647e-16 1.224647e-16 -1 169.3254 523.5043)" style="fill:#302B2B;" width="10.021" height="4.518"/>
			</g>
			<g>
				<defs>
					<polygon id="SVGID_1_" points="368.126,306.469 420.024,306.469 422.724,290.702 424.947,291.083 425.399,288.445 
						423.175,288.064 428.679,255.921 430.903,256.302 431.354,253.664 429.13,253.284 434.635,221.141 436.858,221.522 
						437.31,218.884 435.087,218.503 440.59,186.36 442.814,186.74 443.266,184.103 441.042,183.722 446.3,153.013 448.525,153.394 
						448.976,150.756 440.443,149.295 444.008,128.484 445.673,128.769 446.218,125.585 405.186,118.559 405.085,118.541 
						404.54,121.725 406.205,122.01 402.642,142.822 394.21,141.378 394.109,141.361 393.658,143.999 395.882,144.379 
						390.623,175.088 388.399,174.708 387.947,177.346 390.172,177.726 384.668,209.869 382.544,209.506 382.444,209.488 
						381.992,212.126 384.216,212.507 378.711,244.65 376.487,244.269 376.036,246.907 378.26,247.288 372.757,279.431 
						370.633,279.067 370.532,279.05 370.081,281.688 372.304,282.069 					"/>
				</defs>
				<clipPath id="SVGID_00000175282055280192852170000008540737067607234966_">
					<use xlink:href="#SVGID_1_"  style="overflow:visible;"/>
				</clipPath>
				<g style="clip-path:url(#SVGID_00000175282055280192852170000008540737067607234966_);">
					
						<rect x="404.25" y="124.994" transform="matrix(0.9857 0.1688 -0.1688 0.9857 28.9683 -69.5021)" style="fill:#F4D6BE;" width="38.149" height="21.318"/>
					
						<rect x="404.615" y="122.141" transform="matrix(0.9857 0.1688 -0.1688 0.9857 26.9724 -70.0201)" style="fill:#8C6850;" width="41.528" height="3.027"/>
					<g>
						<path style="fill:#D8B39A;" d="M412.451,128.059c-2.088-0.358-4.071,1.045-4.429,3.134l-2.105,12.293l7.563,1.295
							l2.105-12.294C415.942,130.399,414.539,128.416,412.451,128.059z"/>
						<path style="fill:#D8B39A;" d="M424.278,130.084c-2.088-0.358-4.071,1.045-4.429,3.134l-2.105,12.294l7.563,1.295
							l2.105-12.294C427.77,132.424,426.366,130.441,424.278,130.084z"/>
						<path style="fill:#D8B39A;" d="M436.105,132.109c-2.088-0.358-4.071,1.045-4.429,3.134l-2.105,12.294l7.563,1.295
							l2.105-12.294C439.597,134.449,438.194,132.467,436.105,132.109z"/>
					</g>
					
						<rect x="392.865" y="148.361" transform="matrix(0.9857 0.1688 -0.1688 0.9857 33.8104 -68.2423)" style="fill:#F4D6BE;" width="50.949" height="32.814"/>
					
						<rect x="393.586" y="146.141" transform="matrix(0.9857 0.1688 -0.1688 0.9857 30.9183 -68.9949)" style="fill:#8C6850;" width="55.461" height="2.473"/>
					<g>
						<path style="fill:#D8B39A;" d="M400.296,153.042c-1.395-0.239-2.72,0.699-2.959,2.094l-2.858,16.692l5.053,0.865l2.858-16.692
							C402.629,154.605,401.691,153.28,400.296,153.042z"/>
						<path style="fill:#D8B39A;" d="M408.088,154.376c-1.395-0.239-2.72,0.699-2.959,2.094l-2.858,16.692l5.053,0.865l2.858-16.692
							C410.421,155.94,409.483,154.615,408.088,154.376z"/>
						<path style="fill:#D8B39A;" d="M415.88,155.71c-1.395-0.239-2.72,0.698-2.959,2.094l-2.858,16.692l5.053,0.865l2.858-16.692
							C418.213,157.274,417.275,155.949,415.88,155.71z"/>
						<path style="fill:#D8B39A;" d="M423.672,157.044c-1.395-0.239-2.72,0.699-2.959,2.094l-2.858,16.692l5.053,0.865l2.858-16.692
							C426.004,158.608,425.067,157.283,423.672,157.044z"/>
						<path style="fill:#D8B39A;" d="M431.464,158.378c-1.395-0.239-2.72,0.699-2.959,2.094l-2.858,16.692l5.053,0.865l2.858-16.692
							C433.796,159.942,432.859,158.617,431.464,158.378z"/>
						<path style="fill:#D8B39A;" d="M439.255,159.713c-1.395-0.239-2.72,0.699-2.959,2.094l-2.858,16.692l5.053,0.865l2.858-16.692
							C441.588,161.277,440.651,159.952,439.255,159.713z"/>
					</g>
					
						<rect x="369.287" y="286.05" transform="matrix(0.9857 0.1688 -0.1688 0.9857 56.7116 -62.2884)" style="fill:#F4D6BE;" width="50.949" height="32.814"/>
					
						<rect x="370.009" y="283.83" transform="matrix(0.9857 0.1688 -0.1688 0.9857 53.8191 -63.0403)" style="fill:#8C6850;" width="55.461" height="2.473"/>
					<g>
						<path style="fill:#D8B39A;" d="M379.873,294.455c-2.789-0.478-5.437,1.396-5.915,4.185l-2.811,16.418l10.1,1.729l2.811-16.418
							C384.536,297.581,382.662,294.933,379.873,294.455z"/>
						<path style="fill:#D8B39A;" d="M395.669,297.16c-2.789-0.478-5.437,1.396-5.915,4.185l-2.811,16.418l10.1,1.729l2.811-16.418
							C400.332,300.286,398.458,297.638,395.669,297.16z"/>
						<path style="fill:#D8B39A;" d="M411.465,299.865c-2.789-0.478-5.437,1.396-5.915,4.185l-2.811,16.418l10.1,1.729l2.811-16.418
							C416.127,302.991,414.254,300.342,411.465,299.865z"/>
					</g>
					
						<rect x="375.243" y="251.269" transform="matrix(0.9857 0.1688 -0.1688 0.9857 50.9268 -63.7925)" style="fill:#F4D6BE;" width="50.949" height="32.814"/>
					
						<rect x="375.965" y="249.049" transform="matrix(0.9857 0.1688 -0.1688 0.9857 48.0342 -64.5445)" style="fill:#8C6850;" width="55.461" height="2.473"/>
					<g>
						<path style="fill:#D8B39A;" d="M382.674,255.95c-1.395-0.239-2.72,0.699-2.959,2.094l-2.858,16.692l5.053,0.865l2.858-16.692
							C385.007,257.514,384.07,256.189,382.674,255.95z"/>
						<path style="fill:#D8B39A;" d="M390.466,257.284c-1.395-0.239-2.72,0.698-2.959,2.094l-2.858,16.692l5.053,0.865l2.858-16.692
							C392.799,258.848,391.862,257.523,390.466,257.284z"/>
						<path style="fill:#D8B39A;" d="M398.258,258.618c-1.395-0.239-2.72,0.699-2.959,2.094l-2.858,16.692l5.053,0.865l2.858-16.692
							C400.591,260.182,399.654,258.857,398.258,258.618z"/>
						<path style="fill:#D8B39A;" d="M406.05,259.953c-1.395-0.239-2.72,0.699-2.959,2.094l-2.858,16.692l5.053,0.865l2.858-16.692
							C408.383,261.517,407.445,260.192,406.05,259.953z"/>
						<path style="fill:#D8B39A;" d="M413.842,261.287c-1.395-0.239-2.72,0.699-2.959,2.094l-2.858,16.692l5.053,0.865l2.858-16.692
							C416.175,262.851,415.237,261.526,413.842,261.287z"/>
						<path style="fill:#D8B39A;" d="M421.634,262.621c-1.395-0.239-2.72,0.699-2.959,2.094l-2.858,16.692l5.053,0.865l2.858-16.692
							C423.967,264.185,423.029,262.86,421.634,262.621z"/>
					</g>
					
						<rect x="381.199" y="216.488" transform="matrix(0.9857 0.1688 -0.1688 0.9857 45.142 -65.2967)" style="fill:#F4D6BE;" width="50.949" height="32.814"/>
					
						<rect x="381.92" y="214.269" transform="matrix(0.9857 0.1688 -0.1688 0.9857 42.2495 -66.0488)" style="fill:#8C6850;" width="55.461" height="2.473"/>
					<g>
						<path style="fill:#D8B39A;" d="M388.63,221.169c-1.395-0.239-2.72,0.699-2.959,2.094l-2.858,16.692l5.053,0.865l2.858-16.692
							C390.963,222.733,390.025,221.408,388.63,221.169z"/>
						<path style="fill:#D8B39A;" d="M396.422,222.503c-1.395-0.239-2.72,0.699-2.959,2.094l-2.858,16.692l5.053,0.865l2.858-16.692
							C398.755,224.067,397.817,222.742,396.422,222.503z"/>
						<path style="fill:#D8B39A;" d="M404.214,223.838c-1.395-0.239-2.72,0.698-2.959,2.094l-2.858,16.692l5.053,0.865l2.858-16.692
							C406.547,225.402,405.609,224.077,404.214,223.838z"/>
						<path style="fill:#D8B39A;" d="M412.006,225.172c-1.395-0.239-2.72,0.699-2.959,2.094l-2.858,16.692l5.053,0.865l2.858-16.692
							C414.339,226.736,413.401,225.411,412.006,225.172z"/>
						<path style="fill:#D8B39A;" d="M419.798,226.506c-1.395-0.239-2.72,0.699-2.959,2.094l-2.858,16.692l5.053,0.865l2.858-16.692
							C422.131,228.07,421.193,226.745,419.798,226.506z"/>
						<path style="fill:#D8B39A;" d="M427.59,227.84c-1.395-0.239-2.72,0.699-2.959,2.094l-2.858,16.692l5.053,0.865l2.858-16.692
							C429.922,229.404,428.985,228.079,427.59,227.84z"/>
					</g>
					
						<rect x="387.154" y="181.708" transform="matrix(0.9857 0.1688 -0.1688 0.9857 39.3572 -66.8009)" style="fill:#F4D6BE;" width="50.949" height="32.814"/>
					
						<rect x="387.876" y="179.488" transform="matrix(0.9857 0.1688 -0.1688 0.9857 36.4647 -67.5529)" style="fill:#8C6850;" width="55.461" height="2.473"/>
					<g>
						<path style="fill:#D8B39A;" d="M394.586,186.388c-1.395-0.239-2.72,0.699-2.959,2.094l-2.858,16.692l5.053,0.865l2.858-16.692
							C396.918,187.952,395.981,186.627,394.586,186.388z"/>
						<path style="fill:#D8B39A;" d="M402.378,187.723c-1.395-0.239-2.72,0.699-2.959,2.094l-2.858,16.692l5.053,0.865l2.858-16.692
							C404.71,189.286,403.773,187.962,402.378,187.723z"/>
						<path style="fill:#D8B39A;" d="M410.17,189.057c-1.395-0.239-2.72,0.699-2.959,2.094l-2.858,16.692l5.053,0.865l2.858-16.692
							C412.502,190.621,411.565,189.296,410.17,189.057z"/>
						<path style="fill:#D8B39A;" d="M417.961,190.391c-1.395-0.239-2.72,0.699-2.959,2.094l-2.858,16.692l5.053,0.865l2.858-16.692
							C420.294,191.955,419.357,190.63,417.961,190.391z"/>
						<path style="fill:#D8B39A;" d="M425.753,191.725c-1.395-0.239-2.72,0.699-2.959,2.094l-2.858,16.692l5.053,0.865l2.858-16.692
							C428.086,193.289,427.149,191.964,425.753,191.725z"/>
						<path style="fill:#D8B39A;" d="M433.545,193.06c-1.395-0.239-2.72,0.699-2.959,2.094l-2.858,16.692l5.053,0.865l2.858-16.692
							C435.878,194.624,434.941,193.299,433.545,193.06z"/>
					</g>
				</g>
			</g>
			<g>
				<g>
					<rect x="117.782" y="293.491" style="fill:#D8A168;" width="173.767" height="12.978"/>
					<rect x="124.94" y="282.035" style="fill:#BC7E46;" width="159.453" height="11.457"/>
					<rect x="133.216" y="270.345" style="fill:#D8A168;" width="142.901" height="11.689"/>
					<rect x="139.971" y="260.026" style="fill:#BC7E46;" width="129.39" height="10.319"/>
					<rect x="146.207" y="250.549" style="fill:#D8A168;" width="116.919" height="9.477"/>
					<rect x="153.696" y="242.182" style="fill:#BC7E46;" width="101.939" height="8.367"/>
					<rect x="159.425" y="234.78" style="fill:#D8A168;" width="90.483" height="7.402"/>
					<rect x="163.702" y="228.246" style="fill:#BC7E46;" width="81.928" height="6.534"/>
					<rect x="167.65" y="222.245" style="fill:#D8A168;" width="74.031" height="6.001"/>
					<rect x="172.393" y="216.947" style="fill:#BC7E46;" width="64.546" height="5.298"/>
				</g>
				<g>
					<polygon style="fill:#CC8A4E;" points="214.383,216.947 204.666,216.947 194.949,216.947 167.65,306.469 204.666,306.469 
						241.682,306.469 					"/>
					<polygon style="fill:#F4BB87;" points="212.837,216.947 204.666,216.947 196.495,216.947 173.54,306.469 204.666,306.469 
						235.792,306.469 					"/>
					<rect x="193.847" y="221.534" style="fill:#CC8A4E;" width="21.29" height="1.949"/>
					<rect x="192.171" y="227.272" style="fill:#CC8A4E;" width="24.641" height="1.949"/>
					<rect x="190.495" y="233.806" style="fill:#CC8A4E;" width="27.993" height="1.949"/>
					<rect x="188.105" y="241.208" style="fill:#CC8A4E;" width="32.774" height="1.949"/>
					<rect x="186.338" y="249.574" style="fill:#CC8A4E;" width="36.307" height="1.949"/>
					<rect x="183.87" y="259.052" style="fill:#CC8A4E;" width="41.244" height="1.949"/>
					<rect x="179.271" y="269.371" style="fill:#CC8A4E;" width="50.442" height="1.949"/>
					<rect x="178.439" y="281.06" style="fill:#CC8A4E;" width="52.104" height="1.949"/>
					<rect x="174.204" y="292.517" style="fill:#CC8A4E;" width="60.575" height="1.949"/>
				</g>
				<g>
					<rect x="184.218" y="194.422" style="fill:#8E592D;" width="40.896" height="22.526"/>
					<rect x="198.326" y="197.071" style="fill:#492E1A;" width="12.679" height="19.877"/>
					<g>
						<g>
							<rect x="190.255" y="197.071" style="fill:#492E1A;" width="6.34" height="19.877"/>
							<rect x="185.573" y="197.071" style="fill:#492E1A;" width="2.899" height="19.877"/>
						</g>
						<g>
							
								<rect x="212.737" y="197.071" transform="matrix(-1 -1.224647e-16 1.224647e-16 -1 431.8144 414.0182)" style="fill:#492E1A;" width="6.34" height="19.877"/>
							
								<rect x="220.859" y="197.071" transform="matrix(-1 -1.224647e-16 1.224647e-16 -1 444.6176 414.0182)" style="fill:#492E1A;" width="2.9" height="19.877"/>
						</g>
					</g>
				</g>
			</g>
		</g>
		<path style="fill:#0994B5;" d="M690.795,352.436c0,18.654-49.414,15.492-84.416,15.492c-18.281,0-14.19,3.943-3.188,3.943
			c32.56,0,41.089,28.73,0,28.73c-41.089,0-101.039-1.69-137.916-1.69c-36.877,0-44.517,27.885,0,27.885s78.869-0.845,76.931,30.42
			c-1.933,31.179-113.533,24.505-183.305,24.505c-30.733,0-27.774-25.35,0-25.35c36.18,0,34.886-16.9,0-16.9
			c-34.886,0-50.876,0-154.235,0c-38.997,0-25.395-26.195,0-26.195c25.047,0,28.089-22.815-46.817-22.815
			c-61.933,0-96.294-9.295-96.294-38.025H690.795z"/>
		<g>
			<rect x="61.555" y="306.469" style="fill:#B8D44C;" width="629.24" height="45.966"/>
			<g>
				<rect x="61.555" y="317.424" style="fill:#878787;" width="629.24" height="13.553"/>
				<g>
					<g>
						<line style="fill:none;stroke:#FFFFFF;stroke-miterlimit:10;" x1="690.795" y1="324.201" x2="684.795" y2="324.201"/>
						
							<line style="fill:none;stroke:#FFFFFF;stroke-miterlimit:10;stroke-dasharray:12.1027,12.1027;" x1="672.692" y1="324.201" x2="73.606" y2="324.201"/>
						<line style="fill:none;stroke:#FFFFFF;stroke-miterlimit:10;" x1="67.555" y1="324.201" x2="61.555" y2="324.201"/>
					</g>
				</g>
			</g>
			<g>
				<g>
					<path style="fill:#69B3E0;" d="M248.098,301.455c-2.071,0-6.57,0.256-7.822,1.023c-1.253,0.767-3.605,4.729-2.326,5.701
						c1.278,0.971,6.367,0.433,11.171,0.102c2.204-0.152,1.457-2.403,1.457-4.039C250.578,302.606,250.169,301.455,248.098,301.455z
						"/>
					<path style="fill:#69B3E0;" d="M265.047,305.937c-0.256-1.798-2.761-4.38-5.675-4.482c-2.914-0.102-7.26-0.716-7.26,1.508
						c0,2.071-0.051,3.374,0.332,4.346c0.383,0.971,4.908,0.588,7.848,0.588C263.232,307.897,265.302,307.735,265.047,305.937z"/>
				</g>
				<rect x="280.375" y="317.279" style="fill:#08293D;" width="1.457" height="2.812"/>
				<rect x="220.9" y="318.129" style="fill:#08293D;" width="2.273" height="2.391"/>
				<rect x="221.256" y="315.464" style="fill:#E0172A;" width="3.17" height="2.147"/>
				<path style="fill:#DD0812;" d="M221.129,321.011c1.329-7.26,7.718-12.452,14.878-9.663c6.169,2.403,6.084,10.277,6.084,10.277
					s-0.812,0.748-3.519,0.748c0,0-0.724-6.066-5.939-6.066c-5.215,0-6.365,5.88-6.365,5.88s-1.224-0.033-3.349-0.051
					C221.026,322.12,221.129,321.011,221.129,321.011z"/>
				<path style="fill:#DD0812;" d="M265.871,319.819c0.316-1.335,2.272-4.195,6.797-4.041c5.114,0.173,6.059,5.97,6.059,5.97
					s0.307,0.038,0.805,0c0.499-0.038,1.035-0.199,1.035-0.199s-0.038-3.044,0.268-4.927c0.307-1.884,0.537-2.526,0.537-4.52
					s-2.249-2.288-2.249-2.288c-8.845-0.524-16.198,2.633-18.958,4.934c-2.019,1.682-2.498,4.656-1.576,7.017
					c5.53,0.355,6.986,0,6.986,0S265.654,320.734,265.871,319.819z"/>
				<path style="fill:#C90514;" d="M272.348,308.818c-5.343,0-15.022,0.23-21.157,0.23c-5.549,0-19.775,0.502-22.065,1.997
					c2.091-0.67,4.441-0.647,6.88,0.303c6.169,2.403,6.084,10.277,6.084,10.277s3.272,0.141,10.404,0.141c1.948,0,4.057,0,6.093,0
					c-0.922-2.362-0.442-5.335,1.576-7.017c2.697-2.247,9.621-5.31,18.339-4.962C277.964,308.769,276.644,308.818,272.348,308.818z"
					/>
				<path style="fill:#C10513;" d="M278.764,308.306c-1.074-1.348-10.676-1.152-10.676-1.152s-0.797-3.475-3.021-6.133
					c-2.224-2.659-6.054-3.106-17.387-2.684c-11.547,0.43-13.554,5.343-14.781,7.132c-1.227,1.79-2.927,2.863-5.33,4.141
					c-1.917,1.019-3.277,3.015-3.751,5.264c1.101-1.423,2.466-2.561,4.01-3.308c0.42-0.203,0.852-0.378,1.296-0.521
					c2.29-1.496,16.516-1.997,22.065-1.997c3.91,0,10.611-0.093,16.341-0.161c3.262-0.039,2.878-0.069,4.816-0.069
					c4.296,0,5.616-0.049,6.155,0.968c0.207,0.008,0.414,0.017,0.619,0.029C279.122,309.815,279.498,309.227,278.764,308.306z"/>
				<path style="fill:#FFD251;" d="M281.725,310.673c-0.221-0.006-0.51-0.006-0.885,0.004c0.286,0.312,0.5,0.733,0.528,1.298
					c0.279-0.039,0.568-0.107,0.733-0.228c0.028-0.021,0.054-0.043,0.078-0.068C282.534,311.312,282.236,310.686,281.725,310.673z"
					/>
				<path style="fill:#025DAB;" d="M281.146,314.855c-0.086,0.504-0.193,1.044-0.311,1.767c-0.004,0.027-0.008,0.054-0.013,0.081
					h0.89v-1.83C281.713,314.874,281.499,314.842,281.146,314.855z"/>
				<rect x="251.163" y="298.198" style="fill:#A30713;" width="0.105" height="23.567"/>
				<g>
					<path style="fill:#22231E;" d="M239.561,322.373c0-3.911-3.171-7.082-7.082-7.082s-7.082,3.171-7.082,7.082
						c0,3.911,3.171,7.082,7.082,7.082S239.561,326.285,239.561,322.373z"/>
					<path style="fill:#79CAF2;" d="M236.574,322.373c0-2.261-1.833-4.095-4.095-4.095c-2.261,0-4.095,1.833-4.095,4.095
						c0,2.262,1.833,4.095,4.095,4.095C234.74,326.468,236.574,324.635,236.574,322.373z"/>
					<path style="fill:#22231E;" d="M234.818,322.373c0-1.292-1.047-2.339-2.339-2.339s-2.339,1.047-2.339,2.339
						c0,1.292,1.047,2.339,2.339,2.339S234.818,323.665,234.818,322.373z"/>
					<path style="fill:#141411;" d="M232.479,315.291c-3.911,0-7.082,3.171-7.082,7.082c0,3.911,3.171,7.082,7.082,7.082
						s7.082-3.171,7.082-7.082C239.561,318.462,236.39,315.291,232.479,315.291z M232.479,327.713c-2.949,0-5.339-2.391-5.339-5.34
						c0-2.949,2.391-5.339,5.339-5.339s5.34,2.39,5.34,5.339C237.818,325.322,235.428,327.713,232.479,327.713z"/>
				</g>
				<g>
					<path style="fill:#DD0812;" d="M240.834,310.863c0,0.296-0.512,0.537-1.145,0.537c-0.632,0-1.145-0.24-1.145-0.537
						c0-0.297,0.512-0.537,1.145-0.537C240.322,310.326,240.834,310.566,240.834,310.863z"/>
				</g>
				<g>
					<path style="fill:#DD0812;" d="M254.919,310.863c0,0.296-0.512,0.537-1.145,0.537c-0.632,0-1.145-0.24-1.145-0.537
						c0-0.297,0.513-0.537,1.145-0.537C254.407,310.326,254.919,310.566,254.919,310.863z"/>
				</g>
				<path style="fill:#69B3E0;" d="M247.887,299.987c-2.206,0-6.999,0.292-8.334,1.168s-3.84,5.402-2.478,6.512
					c1.362,1.11,6.783,0.495,11.901,0.117c2.348-0.173,1.552-2.745,1.552-4.614C250.529,301.301,250.093,299.987,247.887,299.987z"
					/>
				<path style="fill:#69B3E0;" d="M265.944,305.106c-0.272-2.053-2.941-5.003-6.046-5.119c-3.105-0.117-7.735-0.818-7.735,1.723
					c0,2.365-0.055,3.854,0.354,4.964c0.409,1.11,5.229,0.672,8.361,0.672C264.01,307.345,266.216,307.16,265.944,305.106z"/>
				<path style="fill:#69B3E0;" d="M239.553,301.155c-1.335,0.876-3.84,5.402-2.478,6.512c0.402,0.327,1.158,0.504,2.154,0.581
					l5.796-8.151C242.857,300.248,240.441,300.573,239.553,301.155z"/>
				<path style="fill:#69B3E0;" d="M247.887,299.987c-0.297,0-0.641,0.006-1.017,0.017l-6.059,8.293
					c1.522-0.008,3.345-0.137,5.242-0.286l4.006-7.094C249.678,300.332,249.015,299.987,247.887,299.987z"/>
				<path style="fill:#79CAF2;" d="M265.19,303.246c-0.675,1.385-1.345,2.761-1.956,4.019c1.806-0.168,2.907-0.674,2.71-2.158
					C265.867,304.529,265.601,303.882,265.19,303.246z"/>
				<path style="fill:#79CAF2;" d="M255.107,299.835l-2.905,5.085c0.044,0.689,0.134,1.259,0.316,1.754
					c0.146,0.398,0.862,0.596,1.861,0.688l3.34-7.494C256.825,299.819,255.92,299.787,255.107,299.835z"/>
				<path style="fill:#79CAF2;" d="M260.205,300.008l-3.861,7.422c1.497-0.003,3.174-0.085,4.534-0.085
					c0.405,0,0.794-0.004,1.165-0.013l2.304-5.151C263.293,301.07,261.818,300.166,260.205,300.008z"/>
				<path style="fill:#79CAF2;" d="M245.026,300.096l-5.796,8.151c0.477,0.037,1.007,0.052,1.582,0.049l6.059-8.293
					C246.31,300.021,245.68,300.051,245.026,300.096z"/>
				<path style="fill:#79CAF2;" d="M250.529,303.17c0-0.914-0.106-1.693-0.47-2.253l-4.006,7.094
					c0.965-0.076,1.95-0.156,2.923-0.228C251.325,307.61,250.529,305.039,250.529,303.17z"/>
				<path style="fill:#69B3E0;" d="M264.347,302.181l-2.304,5.151c0.424-0.011,0.821-0.033,1.191-0.067
					c0.611-1.258,1.28-2.634,1.956-4.019C264.954,302.882,264.67,302.522,264.347,302.181z"/>
				<path style="fill:#69B3E0;" d="M252.163,301.71c0,1.311-0.017,2.353,0.038,3.21l2.905-5.085
					C253.442,299.935,252.163,300.375,252.163,301.71z"/>
				<path style="fill:#69B3E0;" d="M259.898,299.987c-0.676-0.025-1.423-0.078-2.18-0.12l-3.34,7.494
					c0.578,0.053,1.251,0.07,1.966,0.069l3.861-7.422C260.103,299.998,260.001,299.991,259.898,299.987z"/>
				<path style="fill:#700310;" d="M272.668,315.778c-4.525-0.153-6.48,2.706-6.797,4.041c-0.217,0.915-0.297,1.946-0.297,1.946
					c6.576-1.396,13.152-0.017,13.152-0.017l-0.004-0.021C278.657,321.359,277.607,315.945,272.668,315.778z"/>
				<g>
					<path style="fill:#22231E;" d="M279.232,322.373c0-3.911-3.171-7.082-7.082-7.082c-3.911,0-7.082,3.171-7.082,7.082
						c0,3.911,3.171,7.082,7.082,7.082C276.061,329.455,279.232,326.285,279.232,322.373z"/>
					<path style="fill:#79CAF2;" d="M276.245,322.373c0-2.261-1.833-4.095-4.095-4.095c-2.262,0-4.095,1.833-4.095,4.095
						c0,2.262,1.833,4.095,4.095,4.095C274.411,326.468,276.245,324.635,276.245,322.373z"/>
					<path style="fill:#22231E;" d="M274.489,322.373c0-1.292-1.047-2.339-2.339-2.339c-1.292,0-2.339,1.047-2.339,2.339
						c0,1.292,1.047,2.339,2.339,2.339C273.442,324.713,274.489,323.665,274.489,322.373z"/>
					<path style="fill:#141411;" d="M272.15,315.291c-3.911,0-7.082,3.171-7.082,7.082c0,3.911,3.171,7.082,7.082,7.082
						c3.911,0,7.082-3.171,7.082-7.082C279.232,318.462,276.061,315.291,272.15,315.291z M272.15,327.713
						c-2.949,0-5.34-2.391-5.34-5.34c0-2.949,2.391-5.339,5.34-5.339s5.34,2.39,5.34,5.339
						C277.49,325.322,275.099,327.713,272.15,327.713z"/>
				</g>
			</g>
		</g>
	</g>
	<g>
		<g>
			<path style="fill:#FFFFFF;" d="M349.116,131.407c-28.626-17.55-47.104-22.686-55.508-20.148
				c-8.405,2.538-13.988,2.406-17.275,4.034c-3.287,1.627-4.596,10.165,17.651,18.848s37.749,3.452,46.926,5.574
				C350.088,141.836,351.408,132.812,349.116,131.407z"/>
			<path style="fill:#0082CB;" d="M296.628,110.722c-1.118,0.091-2.129,0.268-3.02,0.537c-2.067,0.624-3.962,1.086-5.695,1.453
				c1.351,7.784,9.813,10.789,11.267,11.18c1.713,0.461,6.245-5.446,6.368-6.482C305.643,116.607,298.686,114.709,296.628,110.722z"
				/>
			<path style="fill:#DF2E2C;" d="M340.91,139.714c2.564,0.593,4.514,0.314,5.944-0.424c-13.438-6.187-53.433-0.307-69.105-24.556
				c-0.512,0.163-0.985,0.345-1.416,0.559c-3.287,1.627-4.596,10.165,17.651,18.848S331.733,137.593,340.91,139.714z"/>
			<path style="fill:#0082CB;stroke:#DF2E2C;stroke-miterlimit:10;" d="M315.66,122.203c-0.126,1.063-1.091,1.823-2.154,1.696
				c-1.063-0.126-1.823-1.09-1.696-2.154c0.126-1.063,1.09-1.823,2.154-1.696C315.027,120.175,315.787,121.14,315.66,122.203z"/>
			<path style="fill:#0082CB;stroke:#DF2E2C;stroke-miterlimit:10;" d="M322.405,124.956c-0.126,1.063-1.091,1.823-2.154,1.696
				c-1.063-0.126-1.823-1.09-1.696-2.154c0.126-1.063,1.09-1.823,2.154-1.696C321.772,122.929,322.531,123.893,322.405,124.956z"/>
			<path style="fill:#0082CB;stroke:#DF2E2C;stroke-miterlimit:10;" d="M329.295,127.727c-0.126,1.063-1.091,1.823-2.154,1.696
				c-1.063-0.126-1.823-1.09-1.696-2.154c0.126-1.063,1.09-1.823,2.154-1.696C328.662,125.699,329.421,126.664,329.295,127.727z"/>
			<path style="fill:#DF2E2C;" d="M349.116,131.407c5.802-22.179-0.278-18.744-5.061-14.45c-4.783,4.294-7.09,5.051-10.258,5.706
				c-3.168,0.655,2.75,3.937,7.936,6.284C346.92,131.294,348.455,133.934,349.116,131.407z"/>
			<path style="fill:#BF2222;" d="M280.902,113.994c-1.847,0.342-3.364,0.702-4.569,1.298c-2.007,0.994-3.276,4.564,1.105,9.171
				C279.352,122.44,281.74,118.832,280.902,113.994z"/>
			<path style="fill:#BF2222;" d="M349.116,131.407c-0.11-0.068-0.217-0.131-0.327-0.198c0.806,5.078-1.237,7.083-5.657,8.814
				C350.287,140.315,351.208,132.689,349.116,131.407z"/>
			<g>
				<path style="fill:#FFFFFF;" d="M326.586,143.098c-0.556,4.682-14.395,3.84-14.395,3.84l1.3-10.945
					C313.491,135.993,327.254,137.472,326.586,143.098z"/>
				<path style="fill:#CADFEA;" d="M317.346,142.953c-1.618-0.192-3.155-0.515-4.57-0.938l-0.585,4.923
					c0,0,13.839,0.842,14.395-3.84c0.03-0.25,0.022-0.49-0.004-0.724C324.024,143.115,320.796,143.363,317.346,142.953z"/>
				<g>
					<path style="fill:#BF2222;" d="M315.441,141.774c-0.359,3.022-1.814,5.334-3.25,5.164c-1.436-0.171-2.309-2.759-1.95-5.781
						c0.359-3.022,1.814-5.334,3.25-5.164S315.8,138.752,315.441,141.774z"/>
					<path style="fill:#2B3335;" d="M314.835,141.702c-0.319,2.682-1.469,4.751-2.57,4.62c-1.101-0.131-1.735-2.411-1.417-5.093
						c0.319-2.682,1.469-4.751,2.57-4.62C314.519,136.74,315.153,139.02,314.835,141.702z"/>
				</g>
			</g>
			<g>
				<path style="fill:#DF2E2C;" d="M325.534,130.177c11.001,9.681,15.101,15.506,11.023,16.348
					c-4.078,0.842-29.579-15.174-28.893-18.471C308.35,124.758,323.333,128.24,325.534,130.177z"/>
				<path style="fill:#BF2222;" d="M310.182,126.747c-1.395,0.133-2.357,0.53-2.519,1.307c-0.686,3.296,24.815,19.312,28.893,18.471
					c1.62-0.334,1.945-1.458,1.063-3.296C333.309,143.218,314.899,131.969,310.182,126.747z"/>
			</g>
		</g>
		<g>
			<path style="fill:#0A0C0C;" d="M448.917,91.737c-3.608-1.507-7.161-1.615-7.807,0.861c-0.002,0.006-0.003,0.014-0.004,0.02
				c-0.002-0.006-0.003-0.014-0.004-0.02c-0.646-2.476-4.199-2.369-7.807-0.861c-3.608,1.507-7.698-1.077-7.805,0
				c-0.108,1.077,4.953,3.553,9.475,1.938c4.522-1.615,3.015,0.323,6.137,7.537c3.123-7.214,1.624-9.152,6.146-7.537
				c4.522,1.615,9.583-0.861,9.475-1.938C456.615,90.66,452.525,93.244,448.917,91.737z"/>
			<path style="fill:#0A0C0C;" d="M432.483,81.098c-1.331-0.556-2.642-0.596-2.88,0.318c0,0.002-0.001,0.005-0.001,0.007
				c-0.001-0.002-0.001-0.005-0.001-0.007c-0.238-0.914-1.549-0.874-2.88-0.318c-1.331,0.556-2.84-0.397-2.88,0
				c-0.04,0.397,1.827,1.311,3.496,0.715c1.668-0.596,1.112,0.119,2.264,2.781c1.152-2.661,0.599-3.376,2.267-2.781
				c1.668,0.596,3.535-0.318,3.496-0.715C435.323,80.701,433.814,81.654,432.483,81.098z"/>
			<path style="fill:#0A0C0C;" d="M439.119,72.063c-0.927-0.387-1.84-0.415-2.006,0.221c0,0.001-0.001,0.004-0.001,0.005
				c0-0.001-0.001-0.004-0.001-0.005c-0.166-0.636-1.079-0.609-2.006-0.221c-0.927,0.387-1.978-0.277-2.006,0
				c-0.028,0.277,1.273,0.913,2.435,0.498c1.162-0.415,0.775,0.083,1.577,1.937c0.803-1.854,0.417-2.352,1.579-1.937
				c1.162,0.415,2.463-0.221,2.435-0.498C441.097,71.786,440.046,72.45,439.119,72.063z"/>
			<path style="fill:#0A0C0C;" d="M418.103,71.74c-1.961,0.147-3.579,0.91-3.303,2.167c0.001,0.003,0.002,0.007,0.003,0.01
				c-0.002-0.002-0.004-0.006-0.006-0.008c-0.855-0.963-2.423-0.104-3.696,1.395s-3.697,1.274-3.499,1.781
				c0.197,0.507,3.031,0.463,4.69-1.293c1.659-1.756,1.425-0.543,4.471,1.979c-0.246-3.946-1.36-4.473,1.035-4.781
				c2.396-0.308,4.099-2.573,3.805-3.031C421.308,69.501,420.064,71.592,418.103,71.74z"/>
			<path style="fill:#0A0C0C;" d="M461.348,73.526c-1.485-2.247-3.475-3.673-4.796-2.505c-0.003,0.003-0.007,0.007-0.01,0.01
				c0.001-0.004,0.004-0.009,0.005-0.013c0.581-1.664-1.492-2.967-4.134-3.49s-3.989-3.571-4.464-2.997
				c-0.475,0.574,1.468,3.933,4.675,4.746c3.206,0.813,1.6,1.342,0.616,6.667c4.555-2.927,4.442-4.611,6.408-1.951
				c1.966,2.66,5.811,3.186,6.163,2.529C466.163,75.866,462.832,75.773,461.348,73.526z"/>
		</g>
		<g>
			<g>
				
					<rect x="126.985" y="168.143" transform="matrix(0.9297 -0.3684 0.3684 0.9297 -55.1024 59.1108)" style="fill:#302B2B;" width="0.555" height="11.457"/>
				
					<rect x="139.344" y="173.594" transform="matrix(0.3682 -0.9297 0.9297 0.3682 -70.0005 244.728)" style="fill:#302B2B;" width="11.456" height="0.555"/>
				
					<rect x="133.089" y="173.594" transform="matrix(0.0732 -0.9973 0.9973 0.0732 -45.1098 299.1992)" style="fill:#302B2B;" width="10.679" height="0.555"/>
				
					<rect x="133.629" y="168.531" transform="matrix(0.9973 -0.0731 0.0731 0.9973 -12.3448 10.2475)" style="fill:#302B2B;" width="0.555" height="10.679"/>
			</g>
			<path style="fill:#302B2B;" d="M141.376,187.837c0.715-2.837,1.446-5.865,2.152-8.987h-14.723
				c0.707,3.122,1.438,6.15,2.152,8.987H141.376z"/>
			<g>
				<path style="fill:#DF2E2C;" d="M154.315,152.727c0-10.352-8.125-18.743-18.147-18.743c-10.023,0-18.147,8.392-18.147,18.743
					c0,4.432,3.327,10.42,7.132,15.818h22.03C150.987,163.147,154.315,157.159,154.315,152.727z"/>
				<path style="fill:#FFFFFF;" d="M149.716,152.727c0-10.352-6.066-18.743-13.549-18.743s-13.549,8.392-13.549,18.743
					c0,4.432,2.484,10.42,5.325,15.818h16.447C147.232,163.147,149.716,157.159,149.716,152.727z"/>
				<path style="fill:#DF2E2C;" d="M145.706,152.727c0-10.352-4.271-18.743-9.539-18.743c-5.268,0-9.539,8.392-9.539,18.743
					c0,4.432,1.749,10.42,3.749,15.818h11.58C143.957,163.147,145.706,157.159,145.706,152.727z"/>
				<path style="fill:#FFFFFF;" d="M140.535,152.727c0-10.352-1.956-18.743-4.368-18.743s-4.368,8.392-4.368,18.743
					c0,4.432,0.801,10.42,1.717,15.818h5.303C139.734,163.147,140.535,157.159,140.535,152.727z"/>
			</g>
		</g>
		<g>
			<g>
				
					<rect x="204.117" y="71.945" transform="matrix(0.9297 -0.3684 0.3684 0.9297 -13.7173 80.6312)" style="fill:#302B2B;" width="0.416" height="8.595"/>
				
					<rect x="213.389" y="76.035" transform="matrix(0.3682 -0.9297 0.9297 0.3682 66.6403 250.5571)" style="fill:#302B2B;" width="8.595" height="0.416"/>
				
					<rect x="208.696" y="76.035" transform="matrix(0.0733 -0.9973 0.9973 0.0733 121.0701 282.7827)" style="fill:#302B2B;" width="8.012" height="0.416"/>
				
					<rect x="209.101" y="72.237" transform="matrix(0.9973 -0.0731 0.0731 0.9973 -5.0112 15.4967)" style="fill:#302B2B;" width="0.416" height="8.012"/>
			</g>
			<path style="fill:#302B2B;" d="M214.914,86.721c0.536-2.129,1.085-4.4,1.615-6.743h-11.046c0.53,2.343,1.078,4.614,1.615,6.743
				H214.914z"/>
			<g>
				<path style="fill:#0082CB;" d="M224.62,60.38c0-7.766-6.096-14.062-13.615-14.062c-7.519,0-13.615,6.296-13.615,14.062
					c0,3.325,2.496,7.817,5.351,11.868h16.528C222.124,68.197,224.62,63.705,224.62,60.38z"/>
				<path style="fill:#FFFFFF;" d="M221.17,60.38c0-7.766-4.551-14.062-10.165-14.062c-5.614,0-10.165,6.296-10.165,14.062
					c0,3.325,1.864,7.817,3.995,11.868h12.34C219.307,68.197,221.17,63.705,221.17,60.38z"/>
				<path style="fill:#0082CB;" d="M218.162,60.38c0-7.766-3.204-14.062-7.157-14.062s-7.157,6.296-7.157,14.062
					c0,3.325,1.312,7.817,2.813,11.868h8.688C216.85,68.197,218.162,63.705,218.162,60.38z"/>
				<path style="fill:#FFFFFF;" d="M214.283,60.38c0-7.766-1.467-14.062-3.277-14.062c-1.81,0-3.277,6.296-3.277,14.062
					c0,3.325,0.601,7.817,1.288,11.868h3.978C213.682,68.197,214.283,63.705,214.283,60.38z"/>
			</g>
		</g>
		<g>
			<g>
				
					<rect x="622.611" y="114.681" transform="matrix(0.9297 -0.3684 0.3684 0.9297 -0.724 237.9762)" style="fill:#302B2B;" width="0.601" height="12.406"/>
				
					<rect x="635.994" y="120.584" transform="matrix(0.3681 -0.9298 0.9298 0.3681 293.3811 673.4756)" style="fill:#302B2B;" width="12.406" height="0.601"/>
				
					<rect x="629.22" y="120.584" transform="matrix(0.0733 -0.9973 0.9973 0.0733 467.9161 745.3226)" style="fill:#302B2B;" width="11.564" height="0.601"/>
				
					<rect x="629.805" y="115.102" transform="matrix(0.9973 -0.0731 0.0731 0.9973 -7.1474 46.3541)" style="fill:#302B2B;" width="0.6" height="11.564"/>
			</g>
			<path style="fill:#302B2B;" d="M638.195,136.008c0.774-3.073,1.566-6.351,2.331-9.732h-15.943
				c0.765,3.381,1.557,6.659,2.331,9.732H638.195z"/>
			<g>
				<path style="fill:#B8D44C;" d="M652.205,97.988c0-11.21-8.798-20.297-19.651-20.297s-19.651,9.087-19.651,20.297
					c0,4.8,3.603,11.283,7.723,17.129h23.856C648.602,109.271,652.205,102.788,652.205,97.988z"/>
				<path style="fill:#FFFFFF;" d="M647.225,97.988c0-11.21-6.569-20.297-14.672-20.297s-14.672,9.087-14.672,20.297
					c0,4.8,2.69,11.283,5.766,17.129h17.81C644.535,109.271,647.225,102.788,647.225,97.988z"/>
				<path style="fill:#B8D44C;" d="M642.883,97.988c0-11.21-4.625-20.297-10.329-20.297c-5.705,0-10.329,9.087-10.329,20.297
					c0,4.8,1.894,11.283,4.06,17.129h12.539C640.989,109.271,642.883,102.788,642.883,97.988z"/>
				<path style="fill:#FFFFFF;" d="M637.284,97.988c0-11.21-2.118-20.297-4.73-20.297s-4.73,9.087-4.73,20.297
					c0,4.8,0.867,11.283,1.859,17.129h5.742C636.417,109.271,637.284,102.788,637.284,97.988z"/>
			</g>
		</g>
	</g>
	<g>
		
			<text transform="matrix(1 0 0 1 245.194 442.6978)" style="fill:#FFFFFF; font-family:'OpenSans-Extrabold'; font-size:55.0797px;">TOURISM</text>
		<text transform="matrix(1 0 0 1 331.1132 391.053)" style="fill:#FFFFFF; font-family:'BlackJack'; font-size:35.3218px;">World</text>
		<text transform="matrix(1 0 0 1 350.5932 474.2252)" style="fill:#FFFFFF; font-family:'BlackJack'; font-size:35.3218px;">day</text>
		<g>
			<circle style="fill:#FFFFFF;" cx="303.867" cy="381.892" r="3.202"/>
			<path style="fill:#FFFFFF;" d="M449.335,381.892c0,1.768-1.434,3.202-3.202,3.202c-1.769,0-3.202-1.434-3.202-3.202
				s1.434-3.202,3.202-3.202C447.901,378.69,449.335,380.124,449.335,381.892z"/>
		</g>
	</g>
</g>
</svg>
